<svg width="34" height="34" viewBox="0 0 34 34" fill="none" xmlns="http://www.w3.org/2000/svg">
<g clip-path="url(#clip0)">
<path d="M27.0659 5.82185C25.0024 2.26088 21.3373 0.0853418 17.2617 0.00220117C17.0877 -0.00138477 16.9126 -0.00138477 16.7385 0.00220117C12.6629 0.0853418 8.99779 2.26088 6.93428 5.82185C4.82509 9.46171 4.76738 13.8339 6.77989 17.5175L15.211 32.9495C15.2148 32.9563 15.2186 32.9631 15.2225 32.9699C15.5935 33.6147 16.258 33.9995 17.0002 33.9995C17.7424 33.9995 18.4069 33.6146 18.7778 32.9699C18.7817 32.9631 18.7855 32.9563 18.7893 32.9495L27.2204 17.5175C29.2328 13.8339 29.1751 9.46171 27.0659 5.82185V5.82185ZM17.0001 15.4058C14.3637 15.4058 12.2188 13.2609 12.2188 10.6245C12.2188 7.98815 14.3637 5.8433 17.0001 5.8433C19.6365 5.8433 21.7813 7.98815 21.7813 10.6245C21.7813 13.2609 19.6365 15.4058 17.0001 15.4058Z" fill="#0054FF"/>
</g>
<defs>
<clipPath id="clip0">
<rect width="34" height="34" fill="white"/>
</clipPath>
</defs>
</svg>
